<svg width="50" height="50" viewBox="0 0 10 10" fill="none" xmlns="http://www.w3.org/2000/svg">
<path d="M7.99554 0C8.00365 0.00500835 8.00973 0.0116861 8.01784 0.015025C8.38468 0.108514 8.57317 0.313856 8.57519 0.629382C8.57519 1.11352 8.57519 1.59599 8.57519 2.08013C8.57519 3.23539 8.57519 4.39065 8.57722 5.54758C8.57722 5.61603 8.55493 5.64608 8.47183 5.66945C8.00365 5.80133 7.67126 6.05676 7.46656 6.42738C7.4544 6.45075 7.44224 6.47245 7.43616 6.48414C7.29023 6.48414 7.15444 6.47579 7.01865 6.48581C6.50385 6.52421 6.08026 6.89649 6.07418 7.32387C6.06607 7.80133 6.07013 8.2788 6.07418 8.75793C6.07621 8.87646 6.10661 8.99499 6.12282 9.11853C6.09647 9.1202 6.0681 9.12187 6.03972 9.12187C4.26834 9.12187 2.49899 9.12187 0.727604 9.12187C0.368869 9.12187 0.0912039 8.9399 0.0141873 8.65609C0.00202675 8.61102 0 8.5626 0 8.51586C0 5.88147 0 3.25042 0 0.621035C0 0.30384 0.188488 0.103506 0.561411 0.0133556C0.571544 0.0100167 0.579651 0.00500835 0.587758 0C3.05634 0 5.52696 0 7.99554 0ZM4.27848 3.82137C4.98581 3.82137 5.69518 3.82137 6.40251 3.82137C6.57884 3.82137 6.7045 3.75292 6.75922 3.63272C6.85043 3.43072 6.6741 3.23706 6.39441 3.23706C5.90191 3.23539 5.4094 3.23706 4.9169 3.23706C4.00892 3.23706 3.10296 3.23706 2.19497 3.23706C2.0754 3.23706 1.96595 3.25543 1.88285 3.33222C1.78152 3.42571 1.75517 3.53255 1.81597 3.64775C1.87677 3.76294 1.98824 3.82304 2.14228 3.82304C2.8557 3.82137 3.56709 3.82137 4.27848 3.82137ZM4.28861 5.58598C4.99392 5.58598 5.69923 5.58598 6.40251 5.58598C6.6214 5.58598 6.77949 5.46744 6.78152 5.3005C6.78354 5.13022 6.62546 5.00167 6.40454 5.00167C4.99189 5.00167 3.57722 5.00167 2.16457 5.00334C2.1058 5.00334 2.04297 5.01502 1.98825 5.03339C1.83624 5.08848 1.7572 5.22204 1.79368 5.35559C1.83016 5.49583 1.96392 5.58598 2.14025 5.58598C2.85772 5.58765 3.57317 5.58598 4.28861 5.58598ZM4.2805 2.05509C4.73855 2.05509 5.19862 2.05509 5.65667 2.05509C5.91609 2.05509 6.17552 2.05676 6.43494 2.05342C6.63356 2.05008 6.77949 1.92654 6.78152 1.76795C6.78354 1.58765 6.62343 1.47078 6.37211 1.47078C4.98379 1.47078 3.59343 1.47078 2.20511 1.47078C2.15444 1.47078 2.10377 1.47412 2.05513 1.48247C1.8788 1.51419 1.76125 1.66444 1.79368 1.80968C1.83016 1.96828 1.9619 2.05342 2.17876 2.05342C2.87799 2.05676 3.57925 2.05509 4.2805 2.05509Z" fill="#707070"/>
<path d="M9.99763 7.85667C9.99763 8.14215 9.99966 8.42929 9.99763 8.71477C9.99155 9.34081 9.39366 9.90007 8.64173 9.98689C7.7601 10.0871 6.99196 9.64131 6.8136 8.92679C6.79334 8.84498 6.78523 8.76151 6.78523 8.67804C6.7832 8.24732 6.7832 7.8166 6.7832 7.38589C6.7832 7.19557 6.92913 7.06201 7.13788 7.05701C7.34461 7.05367 7.5027 7.19223 7.50473 7.38589C7.50675 7.81994 7.50067 8.25233 7.50675 8.68639C7.51081 8.99022 7.68713 9.21393 8.0175 9.34081C8.34786 9.46769 8.67011 9.43263 8.95588 9.24565C9.17882 9.10041 9.28422 8.90341 9.28422 8.67136C9.28624 8.11877 9.28624 7.56619 9.28422 7.0136C9.28422 6.86836 9.17477 6.76986 9.02074 6.76819C8.86265 6.76652 8.75118 6.86502 8.75118 7.01527C8.74915 7.51276 8.75118 8.01026 8.74915 8.50775C8.74915 8.68972 8.62147 8.81159 8.41879 8.82662C8.22422 8.84164 8.03776 8.7131 8.03776 8.55283C8.03574 8.00859 8.02763 7.46435 8.03979 6.92011C8.04992 6.50275 8.56269 6.14215 9.07141 6.18055C9.62876 6.22061 9.99763 6.5545 9.99966 7.01694C9.99966 7.29574 9.99966 7.5762 9.99763 7.85667Z" fill="#707070"/>
</svg>
